<?xml version="1.0" encoding="utf-8"?>
<!-- Generator: Adobe Illustrator 28.3.0, SVG Export Plug-In . SVG Version: 6.00 Build 0)  -->
<svg version="1.1" xmlns="http://www.w3.org/2000/svg" xmlns:xlink="http://www.w3.org/1999/xlink" x="0px" y="0px"
	 viewBox="0 0 24 24" style="enable-background:new 0 0 24 24;" xml:space="preserve">
<style type="text/css">
	.st0{fill:#E3E3E3;}
</style>
<g id="Layer_2">
	<path d="M18.9,24H5.1C2.3,24,0,21.7,0,18.9V5.1C0,2.3,2.3,0,5.1,0h13.8C21.7,0,24,2.3,24,5.1v13.8C24,21.7,21.7,24,18.9,24z"/>
</g>
<g id="Layer_1">
	<path class="st0" d="M4.2,20.1c-0.5-0.5-0.7-1.1-0.7-1.8s0.2-1.3,0.7-1.8s1.1-0.7,1.8-0.7s1.3,0.2,1.8,0.7s0.7,1.1,0.7,1.8
		c0,0.7-0.2,1.3-0.7,1.8S6.7,20.8,6,20.8S4.7,20.6,4.2,20.1z M4.2,12.1v-3c1.4,0,2.8,0.3,4.1,0.8s2.6,1.3,3.6,2.4s1.9,2.3,2.4,3.7
		c0.5,1.3,0.8,2.7,0.8,4.1h-3c0-1-0.2-2-0.6-3s-1-1.9-1.8-2.6c-0.8-0.8-1.7-1.4-2.6-1.8S5.2,12.1,4.2,12.1z M4.2,6.1v-3
		c2.2,0,4.3,0.4,6.4,1.2s3.9,2.1,5.6,3.7s2.9,3.5,3.7,5.6c0.8,2.1,1.2,4.2,1.2,6.4h-3c0-1.8-0.3-3.6-1-5.3s-1.7-3.2-3.1-4.6
		S11.1,7.7,9.4,7C7.7,6.5,6,6.1,4.2,6.1z"/>
</g>
</svg>
