<?xml version="1.0" encoding="utf-8"?>
<!-- Generator: Adobe Illustrator 28.3.0, SVG Export Plug-In . SVG Version: 6.00 Build 0)  -->
<svg version="1.1" id="Layer_1" xmlns="http://www.w3.org/2000/svg" xmlns:xlink="http://www.w3.org/1999/xlink" x="0px" y="0px"
	 viewBox="0 0 250 250" style="enable-background:new 0 0 250 250;" xml:space="preserve">
<style type="text/css">
	.st0{fill:#060606;}
	.st1{fill:#FFFFFF;}
</style>
<g>
	<path class="st0" d="M229.39,250H20.61C9.23,250,0,240.77,0,229.39V20.61C0,9.23,9.23,0,20.61,0h208.79
		C240.77,0,250,9.23,250,20.61v208.79C250,240.77,240.77,250,229.39,250z"/>
</g>
<g>
	<g>
		<path class="st1" d="M87.89,52.7h0.22v0.22v14.33v0.22h-0.22H73.56h-0.22v-0.22V52.92V52.7h0.22H87.89z M87.89,74.41h0.22v0.22
			v14.33v0.22h-0.22H73.56h-0.22v-0.22V74.63v-0.22h0.22H87.89z M87.89,96.12h0.22v0.22v14.33v0.22h-0.22H73.56h-0.22v-0.22V96.34
			v-0.22h0.22H87.89z M87.89,117.83h0.22v0.22v14.33v0.22h-0.22H73.56h-0.22v-0.22v-14.33v-0.22h0.22H87.89z M87.89,139.54h0.22
			v0.22v14.33v0.22h-0.22H73.56h-0.22v-0.22v-14.33v-0.22h0.22H87.89z M87.89,161.26h0.22v0.22v14.33v0.22h-0.22H73.56h-0.22v-0.22
			v-14.33v-0.22h0.22H87.89z M87.89,182.97h0.22v0.22v14.33v0.22h-0.22H73.56h-0.22v-0.22v-14.33v-0.22h0.22H87.89z M109.6,161.26
			h0.22v0.22v14.33v0.22h-0.22H95.27h-0.22v-0.22v-14.33v-0.22h0.22H109.6z M131.31,117.83h0.22v0.22v14.33v0.22h-0.22h-14.33h-0.22
			v-0.22v-14.33v-0.22h0.22H131.31z M131.31,139.54h0.22v0.22v14.33v0.22h-0.22h-14.33h-0.22v-0.22v-14.33v-0.22h0.22H131.31z
			 M153.02,161.26h0.22v0.22v14.33v0.22h-0.22h-14.33h-0.22v-0.22v-14.33v-0.22h0.22H153.02z M174.73,52.7h0.22v0.22v14.33v0.22
			h-0.22H160.4h-0.22v-0.22V52.92V52.7h0.22H174.73z M174.73,74.41h0.22v0.22v14.33v0.22h-0.22H160.4h-0.22v-0.22V74.63v-0.22h0.22
			H174.73z M174.73,96.12h0.22v0.22v14.33v0.22h-0.22H160.4h-0.22v-0.22V96.34v-0.22h0.22H174.73z M174.73,117.83h0.22v0.22v14.33
			v0.22h-0.22H160.4h-0.22v-0.22v-14.33v-0.22h0.22H174.73z M174.73,139.54h0.22v0.22v14.33v0.22h-0.22H160.4h-0.22v-0.22v-14.33
			v-0.22h0.22H174.73z M174.73,161.26h0.22v0.22v14.33v0.22h-0.22H160.4h-0.22v-0.22v-14.33v-0.22h0.22H174.73z M174.73,182.97h0.22
			v0.22v14.33v0.22h-0.22H160.4h-0.22v-0.22v-14.33v-0.22h0.22H174.73z"/>
	</g>
</g>
</svg>
